<?xml version="1.0" standalone="no"?>
<!DOCTYPE svg PUBLIC "-//W3C//DTD SVG 20010904//EN"
 "http://www.w3.org/TR/2001/REC-SVG-20010904/DTD/svg10.dtd">
<svg version="1.0" xmlns="http://www.w3.org/2000/svg"
 width="771.000000pt" height="771.000000pt" viewBox="0 0 771.000000 771.000000"
 preserveAspectRatio="xMidYMid meet">
<metadata>
Created by potrace 1.14, written by Peter Selinger 2001-2017
</metadata>
<g transform="translate(0.000000,771.000000) scale(0.100000,-0.100000)"
fill="#000000" stroke="none">
<path d="M3722 7688 c-119 -36 -215 -106 -456 -331 -66 -62 -133 -124 -150
-139 l-31 -28 759 0 760 0 -30 32 c-237 254 -434 413 -578 465 -65 23 -200 24
-274 1z"/>
<path d="M1549 6937 c-116 -16 -224 -94 -264 -189 -35 -86 -36 -122 -37 -1143
-1 -901 1 -1013 15 -1040 8 -16 55 -66 103 -110 48 -44 99 -91 114 -105 15
-14 76 -70 135 -125 60 -55 125 -116 146 -135 20 -19 61 -57 90 -84 30 -27
108 -99 173 -160 65 -61 134 -124 151 -141 18 -16 81 -75 140 -130 59 -54 115
-106 124 -115 10 -8 71 -64 136 -125 65 -60 129 -121 144 -134 30 -28 247
-229 270 -251 57 -54 54 -54 102 -9 196 182 238 219 287 256 84 63 217 126
317 150 11 2 70 7 130 10 128 6 212 -9 328 -57 66 -27 188 -101 222 -133 7 -7
54 -50 105 -97 51 -47 111 -102 133 -122 22 -21 45 -38 51 -38 6 0 27 14 46
31 37 33 219 202 274 254 18 17 81 75 140 130 60 55 125 116 146 135 49 46
244 227 284 264 28 25 196 182 281 261 18 17 81 75 141 130 122 113 115 107
293 274 73 69 141 132 151 141 11 9 24 30 31 46 17 43 19 2002 2 2085 -31 153
-136 254 -288 275 -68 10 -4548 11 -4616 1z m1925 -797 c109 -23 211 -74 323
-161 54 -42 63 -46 74 -33 17 21 123 95 181 127 119 65 321 92 468 61 293 -61
512 -278 574 -570 15 -67 16 -247 2 -304 -5 -24 -11 -52 -20 -95 -8 -34 -52
-158 -76 -210 -146 -314 -476 -655 -905 -937 -224 -147 -249 -149 -418 -37
-32 22 -60 39 -62 39 -17 0 -313 222 -400 299 -102 92 -251 251 -319 341 -195
258 -283 472 -291 705 -12 365 150 615 480 741 128 48 264 60 389 34z"/>
<path d="M3205 5900 c-158 -43 -279 -155 -336 -310 -20 -53 -24 -84 -24 -170
0 -124 6 -165 39 -258 65 -187 178 -354 376 -553 144 -145 263 -241 464 -373
128 -84 136 -84 272 6 316 211 549 432 707 670 129 194 173 325 164 483 -16
257 -127 420 -342 500 -74 27 -210 26 -295 -3 -95 -32 -192 -102 -245 -177
-53 -73 -104 -106 -150 -97 -19 3 -48 25 -80 60 -134 148 -193 191 -305 223
-66 18 -177 18 -245 -1z"/>
<path d="M942 5197 c-31 -30 -86 -81 -122 -115 l-65 -62 40 -36 c161 -145 189
-169 199 -172 8 -2 11 60 11 218 0 121 -1 220 -3 220 -2 0 -29 -24 -60 -53z"/>
<path d="M6707 5023 c0 -120 1 -220 2 -222 1 -2 25 18 54 45 29 27 83 75 120
108 63 54 79 80 58 88 -8 2 -166 145 -207 186 -7 6 -16 12 -21 12 -4 0 -7 -98
-6 -217z"/>
<path d="M533 4805 c-17 -7 -40 -26 -50 -41 -17 -27 -18 -113 -18 -2164 l0
-2135 24 -74 c25 -74 75 -159 128 -217 75 -83 217 -148 350 -162 37 -4 1353
-7 2923 -6 2230 1 2868 4 2915 13 33 7 96 30 141 51 134 64 223 170 281 335
17 47 18 177 20 2180 3 2014 2 2132 -14 2165 -25 50 -82 76 -131 61 -21 -6
-51 -23 -68 -38 -33 -30 -225 -208 -334 -309 -36 -34 -79 -75 -96 -90 -30 -28
-245 -228 -268 -249 -48 -45 -182 -169 -281 -260 -65 -60 -135 -126 -156 -145
-20 -19 -78 -73 -129 -120 -51 -47 -106 -98 -124 -115 -34 -33 -254 -236 -350
-325 -33 -30 -70 -64 -81 -75 -12 -11 -68 -63 -125 -115 -57 -52 -115 -106
-130 -120 -15 -14 -76 -70 -135 -125 -60 -55 -119 -110 -132 -123 -13 -13 -27
-22 -32 -20 -5 2 -69 60 -142 129 -215 203 -304 282 -356 317 -130 89 -308
119 -448 76 -136 -41 -169 -65 -445 -324 -48 -45 -113 -104 -172 -159 -56 -51
-41 -57 -195 86 -60 55 -132 122 -161 149 -30 27 -75 69 -101 94 -45 43 -236
220 -292 271 -22 20 -135 125 -274 254 -17 17 -83 77 -145 135 -110 102 -184
170 -320 297 -36 34 -79 74 -96 89 -17 16 -81 76 -143 133 -61 57 -120 111
-130 120 -10 9 -74 68 -141 131 -161 150 -156 145 -230 214 -36 33 -94 88
-130 122 -107 102 -143 117 -207 89z"/>
</g>
</svg>
