<svg width="485" height="484" viewBox="0 0 485 484" fill="none" xmlns="http://www.w3.org/2000/svg">
<path d="M186.2 483.9C183.2 474.1 184.6 464.2 185.7 454.3C187.4 438.8 189 423.3 190.7 407.8C190.8 406.7 191.2 405.5 191.1 404.4C191 403.6 190.4 402.8 189.6 402.2C186 428.1 185.1 454.1 181.4 479.7C180.9 479.7 180.4 479.7 179.9 479.7C179.8 478.6 179.5 477.4 179.5 476.3C179.2 451.6 180.2 426.9 183.7 402.4C184.3 398 182.4 395.7 178.8 393C177.4 400.2 176 407 174.9 413.8C171.9 432.8 171 451.9 172.9 471.1C173.1 472.8 173.4 474.4 173.4 476.1C173.4 477 172.8 477.9 172.5 478.8C171.8 478.1 170.7 477.6 170.5 476.8C169.3 471.2 167.3 465.5 167.4 459.9C167.7 448.2 168.7 436.5 170.1 424.9C171.6 413.3 174 401.8 176 390.3C176.2 389.1 175.7 387.8 175.6 386.6C175.3 386.6 175 386.6 174.6 386.6C173.6 391.1 172.6 395.6 171.7 400.1C167 423.3 162.7 446.5 161.1 470.2C160.9 473.3 161 476.5 160.6 479.6C160.5 480.8 159.4 481.9 158.8 483.1C158.2 481.9 157.2 480.8 157.2 479.6C156.9 458.9 159.2 438.4 163 418.1C163.3 416.4 163.7 414.6 163.9 412.9C163.9 412.6 163.8 412.3 163.5 411.2C161.2 420.7 158.7 429.4 157 438.2C155.5 446 154.9 453.9 153.9 461.8C153.8 462.5 153.7 463.3 153.4 463.9C153 464.9 152.4 465.9 151.9 466.8C151.3 465.6 150.1 464.5 150 463.3C149.1 453.2 151.1 443.5 153.7 433.9C159.8 410.6 165.9 387.4 172.1 364.2C173 361 174.1 357.8 175 354.8C170 351.9 165.1 349 160.3 346.1C161.3 351.1 162.7 356.4 163.5 361.6C165.1 371.9 165.4 382.2 163.3 392.4C163.1 393.6 162.1 394.7 161.5 395.8C160.3 395.1 158.9 394.6 158 393.6C149.8 384.1 145.6 372.8 143.8 360.6C143 355.2 142.8 349.8 142.3 343.8C141.9 345 141.5 345.7 141.3 346.5C136.8 360 130.9 372.7 120.5 382.9C119.4 384 118.3 385.2 117 386C115.9 386.7 114.5 387 113.2 387.5C112.8 386.3 112 385 112 383.8C112.3 376.8 112.2 369.7 113.4 362.9C116.7 344.7 124.2 328 134.2 312.5C134.7 311.7 135.2 310.8 135.3 309.6C133.6 311.1 132 312.6 130.3 314C124.5 319.1 118.4 323.6 111.1 326.3C109.9 326.7 108.6 326.6 107.3 326.7C107.3 325.3 107 323.8 107.4 322.6C110 315.4 115 309.8 121 305.4C127 301 133.5 297.1 139.6 293.2C137.9 292.8 135.5 292.2 133.2 291.5C127 289.8 121.2 287.2 116.9 282.1C116.1 281.2 115.4 279.5 115.8 278.6C116.2 277.8 118 277.2 119.2 277.2C121.8 277.1 124.4 277.4 126.3 277.5C123.4 272.8 120.3 267.7 117 262.4C115.1 263.3 113.8 264.8 113.4 267.8C111.9 281 109.1 293.9 101.2 304.9C98.3 308.9 94.4 312.2 90.7 315.6C89.7 316.5 87.9 316.7 86.5 317.1C86.1 315.7 85.4 314.2 85.5 312.8C86 299.9 90 288.1 97.1 277.5C100.7 272.1 105 267.1 108.6 262.4C103.1 264.7 97.3 267.7 91.2 269.7C82.1 272.7 72.7 272.6 63.4 270.1C62.3 269.8 60.8 268.9 60.6 268.1C60.4 267.3 61.5 265.8 62.4 265.2C69.7 260.3 77.2 255.4 84.5 250.6C85.3 246.6 86.1 242 87 237.4C86.6 237.6 86.2 237.7 86 237.9C73.8 248.7 59.1 254.7 44.1 259.9C39.9 261.4 35.6 262.8 31.3 264.1C30.3 264.4 29 264 27.8 263.9C28.1 262.8 28 261.5 28.6 260.6C35.3 250.7 43.6 242.4 53.8 236C54.1 235.8 54.4 235.5 54.6 234.9C52.2 235.4 49.9 236.4 47.5 236.4C43.1 236.5 38.6 236.1 34.2 235.7C33.5 235.6 32.4 234.5 32.3 233.7C32.2 233.1 33.1 232 33.8 231.6C42 227 50.1 222.1 59.5 220.3C61.6 219.9 63.8 219.8 66.8 219.4C65.3 218.7 64.3 218.3 63.4 217.8C49.7 211.3 39.6 201.4 33.5 187.4C31.8 183.4 32.7 182.2 37 182.4C47.3 183 56.4 187.2 65.1 192.4C66 192.9 66.8 193.5 68 193.8C67.4 193.2 66.9 192.5 66.3 191.9C58.5 183.5 54.7 173.4 53.5 162.2C53.4 161 54.4 159.7 54.8 158.4C55.8 159.1 57.1 159.6 57.7 160.6C61.2 166 64.6 171.6 68.3 177.6C68.7 162.4 73.2 149.8 87.4 142.2C79.9 138.4 74.4 133.1 71.1 125.6C70.3 123.9 69.6 122.1 69.3 120.3C69.1 119.2 69.4 117.7 70 117C70.4 116.6 72.2 116.9 73 117.4C79.6 121.3 85 126.5 88.4 133.5C88.8 134.2 89.1 134.9 89.5 135.8C91.4 131.1 92.8 126.4 95.1 122.1C100.9 111.2 109.1 102.5 120.9 98.1C127.3 95.7 133.6 95.8 139.4 100C140.5 100.8 141.9 101 143.7 101.6C142.7 95.3 142.3 89.7 145 84.7C146.7 81.6 149.3 78.9 151.6 76.1C152.1 75.5 153.5 75.2 154.1 75.5C154.7 75.8 155 77.1 155 77.9C154.8 84.6 153 90.9 150.4 97C150 97.8 149.7 98.7 149 100.2C157.2 96.2 164.9 96.2 172.3 100.4C179.5 104.5 184 111 188.1 118.3C188.2 117.1 188.3 115.9 188.4 115.1C187.1 113.9 186 113.2 185.2 112.2C176.4 100.6 178.2 82.6 186.7 71.4C187.2 70.8 188 70.5 188.7 70.1C189.2 70.9 190.1 71.7 190.2 72.6C191.3 81.5 192.3 90.4 193.4 99.4C193.5 100.5 193.4 101.6 193.4 102.3C197.7 95.2 202 87.9 206.5 80.7C207.7 78.8 209.3 77 210.8 75.3C211.3 74.7 212.3 74.5 213.1 74.1C213.4 75 214.2 76 214 76.8C211.8 88.4 209.6 100 207 111.5C206.5 114 206.8 115.7 208.4 117.4C212.8 122.2 217.1 127.1 220.8 131.2C222.3 123.6 223.4 115.2 225.7 107C228.2 98.1 233.1 90.4 240.8 84.8C241.8 84.1 243.2 83.8 244.4 83.3C244.8 84.5 245.6 85.7 245.6 86.9C245.5 95 245.3 103.2 245.1 111.3C245.1 112 245 112.7 245 114.3C247.8 110.9 250 107.8 252.6 105.2C254.5 103.4 257 101.6 259.6 101C263.2 100.1 264.4 101.9 262.8 105.3C259.5 112.4 256 119.4 252.3 126.3C250.7 129.4 248.4 132.2 246 135.6C256 133.1 264.7 134.8 271.9 141.5C279.6 148.7 279.6 157.4 276 166.4C280.6 164.8 285.2 163.1 289.9 161.5C289.7 161.2 289.2 160.6 288.7 160C277.7 148 270.7 134.2 268.6 118C267.7 110.8 268.6 103.8 271.5 97.1C273 93.6 274 93.4 276.6 95.9C277.6 96.9 278.6 98 279.6 99C278.5 98.3 277.4 97.5 276.3 96.7C274.1 101 273.2 105.6 273.8 112.2C275.5 132.2 285.5 147.9 299.8 161.4C300.1 161.1 300.4 160.6 300.8 160.2C303 161.8 302.1 162.8 300.2 163.8C294.7 166.9 290.4 171.2 287.5 176.9C279.3 192.7 283 214.3 296.2 228C297.5 229.4 298.9 230.7 300.7 232.3C302.2 224 304.9 216.9 309.2 210.4C310.1 209.1 312 208.3 312.6 206.9C314.2 202.9 315.4 198.7 316.8 194.6C317.2 193.4 317.6 192.2 318.1 191.1C322.8 181.2 331.1 176.5 341.6 174.9C342.7 174.7 344.2 174.3 344.7 173.5C346.4 170.5 347.8 167.2 349.3 163.9C344.7 162.2 340.5 163.8 336.4 165.7C332.1 167.6 329.2 170.7 329 176.3C327.1 171.9 327.6 168.5 330.9 164.8C336.9 158 344.4 155.3 353.4 157.6C355.9 151.4 355.7 149.3 351.3 145.3C349.5 143.7 347.4 142.4 345.2 141.6C333.5 137.5 319.8 138.8 311.3 154.6C303.4 169.4 303.2 184.3 309.9 199.6C310.3 200.6 310.2 201.9 310.3 203C309.8 203.1 309.2 203.1 308.7 203.2C297.4 190.1 299.7 175.3 304.2 159.6C302.9 159.9 301.9 160.1 300.8 160.3C300.1 158.7 299.4 157.1 298.7 155.5C296.3 149.4 293.8 143.4 291.5 137.2C291.3 136.5 292 135.5 292.3 134.7C292.9 135.3 293.7 135.8 294 136.5C295.3 139.6 296.4 142.7 297.7 145.8C298.4 147.4 299.3 148.9 300.5 151.1C300.9 147.8 301.1 145.4 301.4 143C302.9 132.6 300.8 122.9 294.2 114.7C290.2 109.7 285.5 105.4 281.2 100.7C290.3 107.3 298.1 115 301.5 126.2C302 127.9 302.5 129.6 303 131.3C303 131.4 303.1 131.4 303.5 131.5C304.5 129.3 305.4 126.9 306.7 124.8C311.4 117.3 316.2 109.8 321 102.4C321.5 101.6 322.8 101.2 323.7 100.6C324.2 101.5 325 102.4 325.1 103.4C326 112.9 324.2 122.1 321.4 131.2C321.1 132.3 320.8 133.4 320.9 134.7C322.9 132.6 324.8 130.5 326.8 128.4C330.7 124.4 335 120.9 340.5 119.2C343.7 118.2 344.6 119.1 344 122.4C343 127.4 339.5 130.5 335.8 133.5C334 134.9 332.1 136.1 329.6 137.8C340.1 137.5 349 139.9 355.6 148.1C358.9 141.3 362.9 135.4 368.7 130.8C369.6 130.1 370.8 129.8 371.9 129.2C372.3 130.4 373 131.6 373.1 132.8C373.3 140.1 370.9 146.8 367.4 153.1C366.9 154 366.4 154.9 366 155.7C386.1 161.6 395.1 176.7 399.4 195.6C400.7 201.4 399.9 210.1 394 217.1C404.4 216.5 413.8 218.2 421.4 226.5C410.4 235.8 399.3 232.3 387.9 227.6C388.1 234.5 386.9 240.8 381.6 245.6C378.2 248.5 374.2 249.7 370.5 249.8C372.8 248.1 375.9 246.3 378.4 244C381.1 241.5 382.6 238 382.1 234.4C381.8 231.5 380.6 228.6 379.5 225.9C379.2 225.2 377.8 224.5 377.1 224.6C374.9 224.9 373.7 224.7 374.7 222C374.8 221.7 374.3 221.2 374.2 221.1C370.2 226.2 366.3 231.2 362.1 236.5C364.6 240.1 365.4 245.1 362.4 249.3C358.1 255.3 351.9 258.3 344.2 257.4C349.4 256.4 353.8 253.9 357.3 250C358.6 248.5 359.2 247.1 358.5 244.9C357.7 242.6 357.8 240 357.5 237.8C354.2 237.8 350.8 238.2 347.4 237.7C339 236.6 333.4 231.5 329.6 224.2C324.8 215 323.2 204.8 321.4 194.7C321.3 194.1 322 193.3 322.3 192.7C322.9 193.3 323.8 193.8 323.9 194.4C325.2 199.8 326 205.3 327.5 210.6C328.8 215.1 330.4 219.6 332.6 223.7C338.4 234.4 350.1 237 360.2 230.3C374.9 220.6 378 199.3 366.7 185.8C362.2 180.5 356.3 177.9 349.5 177.3C347.8 177.2 346.1 178.1 344.4 178.9C341.7 178.3 339.1 180.1 336.8 184.8C338.3 184.5 339.7 184.2 341.1 184C353.1 182 362.3 188.2 364.6 200.1C366.1 207.7 365.6 215.1 360.6 221.6C357.8 225.3 353.6 226.7 349.5 225.3C343.8 223.4 339.6 218.7 339.4 214C339.2 209.8 342.3 204.9 346.3 203.2C350.1 201.5 354.5 202.4 357 205.8C358.6 207.9 359.6 210.4 360.9 212.9C362.3 205.4 362.5 198 357.2 191.6C352.8 186.2 340.4 185.2 334.9 189.5C332 191.8 331.4 195 332.9 199.4C333.3 200.6 334.4 202.2 332.4 202.7C331.8 202.9 330.5 201.4 330.1 200.5C328.5 196.9 328.3 193.4 330.2 189.6C331.2 187.5 333 184.8 329.5 182.9C324.7 185.7 321.2 189.6 318.9 194.6C316.8 199.3 318.5 203.6 320.7 207.7C321.5 209.2 322 210.8 322.6 212.3C322.2 212.6 321.7 212.9 321.3 213.2C319 211.1 316.7 208.9 314.2 206.5C313.4 209.2 312.7 212 311.9 214.9C311.8 213.9 311.7 212.9 311.6 211.2C307.1 218.5 304.8 225.8 304.2 233.6C304.1 234.2 304.9 235 305.3 235.6C305.8 236.4 306.4 237.2 306.9 238C306 238.4 305.2 238.8 304.4 239.2C305 248.1 305.3 257.1 310.6 265C312.8 268.2 315 271.4 317.5 274.3C322.3 279.9 328.1 281.3 335.1 278.8C336.8 278.2 338.3 277.4 339.9 276.6C343 275.2 345.3 273.4 344.6 269.3C344.3 267.6 344.1 264.8 346.8 264.7C347.5 264.7 348.4 267.5 349 269.1C349.3 269.9 349.1 271 349.1 271.9C348.6 278.4 351.7 282.8 358.3 283.2C363 283.5 368.1 283.2 372.5 281.6C384.4 277.5 389.3 267.8 390.9 256.1C391.4 252.1 391.2 248 391.3 243.9C391.3 243.2 391.5 242.6 392 242C395.2 249.8 395.6 257.6 392.7 265.5C389.8 273.6 384 279.1 376.2 283.1C383.5 284.7 390.4 286.2 397.5 287.7C397.6 286.8 397.6 285.8 397.7 284.9C398.2 281.3 400.8 279.1 404.2 279.6C407.7 280.1 409.7 283 409.2 286.7C408.7 290.1 405.7 292.8 402.6 291.7C400.1 290.9 398.4 291.7 396.3 292.4C390.6 294.2 384.8 295.4 378.8 296.9C379.4 297.6 380.2 298.6 381.1 299.6C387 306.5 391.1 314.3 391.9 323.5C392 324.7 392 326 391.9 327.3C391.6 330.7 390.4 331.3 387.5 329.5C386.7 329 385.9 328.5 385.2 328C387.2 314.8 374 300.4 361.2 296.6C363.2 300.5 368 302.1 368 307.7C366.5 307 364.6 306.6 363.5 305.4C360.7 302.3 358.3 298.9 355.7 295.6C355.2 295 354.8 294.3 354.6 294C355.6 300.6 357.3 307.5 357.4 314.3C357.5 321.3 356.5 328.5 355.1 335.4C353.7 342.2 351.3 348.9 349.1 355.5C348.8 356.4 347.7 357.1 347 357.9C346.3 357 345.2 356.2 345 355.3C342.8 343.1 344.6 331.1 347.9 319.3C348.2 318.3 348.5 317.3 348.8 316.3C348.8 316.1 348.7 315.9 348.7 315.6C347.9 316 347.2 316.4 346.5 316.7C339.6 320.2 333.2 319.5 328.6 314.7C323.9 309.7 322.9 300.8 326.6 294.8C329.2 290.6 333 288.6 337.9 289C342.8 289.4 346.4 291.8 348.3 296.4C349.9 300.3 349.2 304 346.6 307.3C344.8 309.5 342.7 309.5 340.8 307.3C338.4 304.7 338.2 301.6 340.6 299.6C341.1 300.5 341.5 301.4 342 302.3C342.4 303.1 342.9 303.8 343.5 304.6C346.4 300.3 345.6 296.4 341.7 294.2C337.2 291.7 331.5 292.8 329.1 296.7C325.7 302.3 327.1 308.6 332.3 311.8C336.9 314.6 343.2 314.3 347.3 311C352.3 306.9 354.1 301.6 351.9 295.9C349.8 290.4 346.1 286.1 340.5 284.7C337.1 283.8 332.9 284 329.6 285.2C321.9 288.1 315.6 299.2 316.3 307.3C316.7 311.9 319.1 315.3 322.9 318C329.4 322.5 333.6 328.7 334.6 336.8C334.7 337.7 334.8 338.7 334.5 339.6C334 341.1 333.2 342.5 332.5 344C331.3 343.1 329.7 342.3 328.8 341.1C325.2 336.2 323.2 330.7 321.8 324.8C321.4 323.1 320.6 321.1 319.3 320C313.2 314.6 311.8 307.9 313.4 300.3C314.9 293.6 318.6 288.3 324.2 283.6C318.8 281.9 314.9 278.8 312.1 274.5C309.4 270.4 306.9 266.2 304.5 262.4C302.9 269.3 301.5 276.7 299.4 283.9C297.3 291 294.5 297.8 292 304.7C294.9 306.4 297.8 308.1 301 309.9C301 308.8 301.1 307.7 301 306.6C299.9 295.8 300.9 285.1 303.2 274.5C303.5 273.2 303.5 271.8 303.8 270.5C304 269.8 304.6 269.2 305 268.6C305.5 269.1 306.3 269.5 306.4 270.1C308 276.6 310 283 311 289.5C312.3 298.7 311.3 307.9 309.8 317C309.6 318.1 310 319.7 310.7 320.6C317.3 329.1 322.4 338.4 326.8 348.2C327.2 349.2 327.2 350.7 326.7 351.6C326.4 352.1 324.6 352.1 323.6 351.9C309.2 347.8 299 338.4 291.5 325.9C288.7 321.3 286.7 316.2 284.5 311.2C284.1 310.3 284.8 308.9 285 307.7C285.8 308.5 287 309.1 287.4 310C292.2 320.9 298.1 330.9 307.5 338.4C311.5 341.6 316.1 344 320.5 346.8C320.9 346.4 321.2 346 321.6 345.7C317.4 339 313.1 332.2 308.8 325.3C306.5 326.7 304.7 326.7 304.3 324.1C303.5 318.9 299.6 316.1 296.1 313C293.2 310.4 290.1 308.1 287.8 306.3C287.8 304.1 287.8 302.6 287.8 301.2C287.8 300.2 287.8 299.2 288.2 298.3C293.8 284.9 296 270.8 296.2 256.3C295.7 259.3 295.1 262.2 294.7 265.2C294.2 268.2 294 271.2 293.5 274.2C293.4 275.1 292.7 276 292.4 276.8C291.8 276 290.9 275.2 290.8 274.2C289.7 267.2 291.3 260.4 293.2 253.8C294.2 250.2 295.7 246.7 296.9 243.2C297.2 242.3 297.2 241.4 297.1 240.4C290.5 255.9 286.1 271.9 285.8 288.9C284.7 270.5 289.9 253.4 297 236.3C286.9 228.9 282 218.4 280.4 206.1C278.8 193.8 281.1 182.4 287.6 171.7C285.3 174.2 283 176.8 280.6 179.2C278.1 181.7 275.6 184.3 272.9 186.5C270.2 188.7 267.2 190.6 264.9 192.2C269.2 197.4 273.9 202.5 277.8 208C279.7 210.7 280.6 214.3 281.6 217.5C281.9 218.3 281.1 219.5 280.8 220.5C280 219.9 278.8 219.5 278.3 218.7C272.9 209.8 267 201.3 258.8 194.7C252.7 189.7 245.8 186.5 237 186.6C244.9 198.9 254 209 267.3 214.7C265.2 212.3 263.1 209.9 261 207.5C259.9 206.3 259.1 204.8 260.8 203.8C261.4 203.4 263.1 204.3 263.9 205.1C266.1 207.3 268.2 209.7 270.2 212.1C272 214.2 273.7 216.3 275.2 218.6C275.5 219.1 275.4 220.5 275 220.9C274.4 221.4 273.2 221.7 272.5 221.4C267.7 219.6 262.8 218.1 258.3 215.7C254.5 213.6 251.2 210.5 247.9 208C239.4 211 231 214.8 222.1 216.8C217.1 217.9 212.5 218.9 208 221.6C202.5 224.9 196.8 224.5 191.9 219.5C191.5 219.1 190.9 218.8 190.3 218.6C188.1 217.8 185.9 217.1 183.6 216.4C181.8 220.7 179.9 225.4 178 229.9C180.9 229.4 184.2 228.6 187.6 228.2C191.2 227.9 194.4 228.9 197.3 231.7C202.3 225.3 208.9 221.5 216.8 220C230.1 217.5 242.5 219.3 252.8 228.8C258.8 234.3 260.7 241.4 259.3 249.4C258.9 251.7 258.8 253.8 261.7 254.2C275.6 256.4 279.6 266.9 281.6 278.7C284.7 297.1 278.4 312.6 266.1 326.1C265.5 326.8 264.8 327.5 264.2 328.2C264.1 328.3 264.2 328.4 264.2 328.2C268.3 328.2 272.6 327.8 276.7 328.3C293.3 330.4 309.3 346.3 311.6 362.9C311.8 364.1 311 365.3 310.6 366.6C309.5 366.2 308.2 366.1 307.3 365.4C298.5 359.2 288.5 355.4 278.5 351.6C278.4 351.5 278.1 351.7 278.1 351.7C280 356.4 282.1 361 283.7 365.8C285.6 371.8 285.9 377.9 284.5 384.1C284.3 385.2 283.3 386.1 282.7 387.1C281.9 386.3 280.9 385.6 280.3 384.7C275.1 376.3 269.9 367.8 264.8 359.3C263.5 362 262.6 364.7 261 366.8C255.7 373.4 248.6 374.3 240.8 372.6C234.9 371.3 230.2 368 225.9 363.1C225.9 372.2 225.9 380.7 225.9 389.2C231 388.1 236.5 386.6 242.2 386C247.1 385.5 252.2 385.8 257.1 386.3C260.3 386.7 262.9 388.7 263.5 392.3C264 396 262 398.6 259 399.8C253.4 402.1 247.5 403.9 242.3 405.7C245.6 406.6 249.8 407.2 253.6 408.8C258.2 410.7 262.7 413 266.7 415.9C270.9 419 271.3 423.9 270.3 428.8C269.6 432.2 266.9 434.5 263.3 434.4C259.8 434.3 256.4 433.5 253 432.4C255 432.3 257.1 432.4 259.1 432C262 431.4 264.3 429.7 265 426.6C265.7 423.3 264.4 420.8 261.8 419C254.4 414 246.1 411.3 237.4 409.4C232.5 408.3 227.5 407.5 221.9 406.5C227.6 413.3 232.8 419.4 237.9 425.4C240.9 434.8 243.5 444.5 239.6 454.4C239.3 454.5 238.9 454.5 238.6 454.6C238.4 453.7 238 452.9 237.9 452C237.1 445.9 236.7 439.7 235.5 433.7C233.4 423 230.3 419.3 219.6 413.4C220.4 416.5 221.5 419.5 221.8 422.5C222.2 427.2 222.1 431.9 222 436.6C222 437.4 221 438.1 220.4 438.9C219.9 438.1 219.1 437.3 219 436.5C218.5 432.3 218.8 428 217.8 424C216.2 417.8 213.7 411.8 211.4 405.9C211.2 405.3 209.5 405.2 207.9 404.6C207.9 408 207.9 410.8 207.9 413.6C207.5 433.9 205.1 453.9 200.7 473.7C200.4 475 199 477.3 198.6 477.2C196.1 476.6 197.5 474.6 197.7 473.1C199.8 454.5 201.9 435.9 204 417.3C204.4 413.6 204.9 409.9 205.3 406C202.9 405.8 200.8 405.6 198.4 405.4C195.4 430 195.9 454.7 195.8 480.2C192.7 478.1 193.2 475.4 192.6 473.2C191.9 470.8 191.6 468.3 191.1 465.3C190.1 471.7 189.1 477.4 188.2 483.2C187.5 483.9 186.9 483.9 186.2 483.9ZM191.6 185.6C191.5 187.7 191.4 189.7 191.2 192C194.8 189.8 197.9 188 201 186.2C198.8 186.5 196.5 186.9 194.1 186.9C193.4 186.9 192.5 186.1 191.6 185.6C192 184.5 192.1 183.1 192.8 182.4C196.8 178.5 200.7 174.3 205.3 171.2C209.7 168.2 214.9 166.3 220.3 163.6C210.7 154.2 201.5 144.2 198.3 130.1C196.9 131.8 195.8 133.1 194.7 134.4C195.8 136.6 197 138.7 197.8 140.9C203.4 155.9 203.5 170 191 182C189.5 183.5 190.2 184.6 191.6 185.6ZM229.9 143.6C230.1 143.5 230.3 143.4 230.3 143.2C237.7 126.8 242.3 109.8 241.6 91.6C241.6 90.6 241.1 89.6 240.8 88.5C227.9 93.8 218.8 134.8 227 150.4C228.1 147.9 229 145.7 229.9 143.6ZM149 221.6C148.7 221.4 148.5 221.2 148.2 221C147.8 221.7 147.5 222.5 146.9 223.1C142.2 228.2 136.4 231.4 129.7 232.8C123.5 234.1 117.6 233.8 112.7 229.1C112.1 228.5 112.2 227.2 111.9 226.3C112.8 226.5 113.7 226.5 114.6 226.9C117 227.8 119.3 229.6 121.8 229.7C132.3 230.2 140.9 226.1 147.3 217.6C147.9 216.8 147.7 215.3 147.6 214.2C147.3 211.2 146.7 208.2 146.4 205.2C146.3 204.5 147.2 203.7 147.6 202.9C148.3 203.3 149.3 203.5 149.5 204.1C150.6 206.6 151.8 209 152.2 211.6C152.8 215.3 153.8 216.9 157.6 217.3C159.8 217.5 162.3 217.5 164.4 216.8C174.3 214 181.1 207.6 185.6 198.5C187.8 194.1 188.6 189.5 186.3 184.8C184.8 185.5 183.5 186.1 182.2 186.7C181.9 186.4 181.7 186.1 181.4 185.9C182.3 184.9 183.1 183.6 184.1 182.8C199.1 170.1 200.4 153.9 192 137.5C191.7 136.9 191.1 136.6 190.5 136C190.1 142.1 190.1 147.8 189.2 153.3C187.7 162.5 183.5 170.3 175.7 175.8C174.7 176.5 173.3 176.6 172.1 177C172.5 175.9 172.8 174.6 173.4 173.6C176 169.9 178.9 166.5 181.3 162.7C186 155.3 187.7 147.2 186.8 139.1C185.3 138.4 184.3 138 183.3 137.5C183.8 136.6 184.4 135.7 184.8 134.8C185.2 134 185.8 133 185.7 132.2C184 122.8 180.2 114.5 173.3 107.7C163 97.6 151.4 97.7 141.3 108C140.6 108.7 139.7 109.4 138.9 110.1C138.6 109.9 138.3 109.7 138.1 109.6C138.6 108 139.1 106.4 139.5 104.9C137.9 104.3 136.5 103.9 135.2 103.1C128.7 99.1 122.1 99.7 115.8 103C102.7 109.8 96.1 121.6 92.4 135.3C91.5 138.5 91.6 142 91.2 145.3C91.5 145.3 91.8 145.4 92.1 145.4C92.2 145 92.4 144.6 92.5 144.1C94.7 136.5 98.1 129.4 103.4 123.5C109.8 116.3 115.6 117.4 119 126.5C119.3 127.4 118.7 128.7 118.6 129.8C117.8 129.1 116.8 128.6 116.4 127.7C112.9 121.3 108.8 120.8 104.5 126.7C99.6 133.3 96.7 140.7 95 148.7C94.1 152.9 94.5 157.2 94.2 161.3C93.9 166.6 95.3 170.4 98.7 173.8C99.5 174.6 101.4 174.5 102.8 174.4C106.2 174.3 109.5 173.9 112.9 173.8C113.6 173.8 115.1 175.1 115 175.5C114.8 176.4 114 177.8 113.2 177.9C110 178.6 106.6 179.7 103.4 179.3C99.9 178.9 98.5 180.3 97.2 182.9C92.7 191.9 95.2 206.9 102.4 214.3C103.1 215 103.3 216.1 103.7 217C102.7 216.8 101.4 216.9 100.7 216.3C97.7 213.6 94.9 210.8 91.9 207.8C89.7 207.7 86.8 207.5 83.9 207.4C85.8 209.6 87.5 213.2 89.8 213.6C93.3 214.2 92.8 216.2 93.2 218.3C95 228 100.2 232 110.1 231.4C110.7 231.4 111.4 231.2 112 231.3C112.6 231.4 113.2 231.9 113.8 232.2C113.5 232.8 113.3 233.6 112.8 233.9C110.1 235.8 107 236.6 103.9 235.6C100.7 234.6 97.8 232.8 94.9 231.5C96.4 238.3 92.2 243.6 87.9 249.5C97.4 246.8 106.3 245 113.9 251.5C115 247.7 116 244 117.2 240.3C117.4 239.7 118.6 239.5 119.3 239.1C119.5 239.9 119.9 240.7 119.8 241.5C119.4 244 118.8 246.4 118.2 248.8C119.3 247.8 119.7 246.6 120.3 245.5C124.7 236.7 132.9 234 140.5 238.9C146.3 242.7 149.1 248.4 150.3 255C150.4 255.7 150.7 256.4 151 257.7C152.3 255 153.2 252.9 154.2 250.8C150.4 249 149 245.9 148.9 242.3C148.9 235.7 149 228.7 149 221.6ZM149.3 299.6C145.7 309.1 146.4 322.9 152.8 332.1C167.2 352.7 186.1 358.1 209.7 348.3C206.9 351.4 208.5 355.1 207.1 358.2C208.9 355.9 210.2 353.4 212 351.2C213.7 349.2 215.9 347.5 217.8 345.7C218.5 345.1 219.3 344.5 220 344C220.6 344.9 221.1 345.8 221.7 346.6C226.9 336.6 232.2 333.5 243.3 335.7C248.5 336.7 251.9 335.5 255.1 332C255.6 331.5 256.2 331.1 256.8 330.6C271.7 316.7 278.5 299.6 276.7 279.4C275.6 266.7 265.7 258.9 254.2 261.1C253.5 267 253.5 267 245.6 274.9C247.4 275.9 249.3 276.7 251 277.8C256.5 281.4 259.6 286.4 258.9 293.1C258.2 299.3 253.7 302.4 248.4 304.4C245.8 305.4 243.1 306 241.1 306.6C240.2 311 240 315.2 238.4 318.9C233.2 331.1 220.3 336.3 206.3 332.1C204.1 331.4 202.5 331.5 200.5 332.8C190.6 339.1 178.2 338.2 170.6 330.7C166.1 326.2 163.6 320.6 162.2 314.5C162 313.7 161.7 312.4 161.1 312.2C155.7 309.6 152 305.4 149.3 299.6ZM171.2 277.1C173.1 276.2 174.4 275.3 175.9 275C177.4 274.7 179.1 275 180.7 275C179.5 275.8 178.4 276.5 177.2 277.3C176.8 277.6 176.2 277.7 175.8 278C171.4 280.4 170.8 282 173.4 286.1C175.1 288.8 177.6 290.9 179.7 293.4C180.2 293.9 180.2 294.8 180.5 295.5C179.8 295.7 179 296.2 178.5 295.9C176 294.5 173.4 293.2 171.3 291.3C170 290.1 169.4 287.9 168.4 285.8C164.7 293 163.1 300.2 164.1 307.8C164.2 308.7 165 309.6 165.7 310.2C168.3 312.2 168.3 312.4 165.3 314.1C167.4 322.5 171.8 329 180.3 331.9C186.6 334.1 192.6 333.5 198 329C196.7 328 195.5 327.2 194.4 326.3C189.4 322.3 186.2 317.1 184.8 310.9C184.6 310 185.5 308.9 185.9 307.8C186.6 308.5 187.4 309.1 188 309.9C188.4 310.5 188.5 311.3 188.7 312C191.1 318.1 195.1 322.9 200.9 325.9C204.5 322.1 207.9 314.5 207.9 310C201.6 310.6 195.4 311.1 189.7 307.2C191.2 306.7 192.6 306.6 194.1 306.7C202.8 307 211.3 306.4 219.2 302.4C227.8 298.1 231.6 290.1 229.7 280.8C227.4 269.9 213.3 260.5 202.3 262.6C200.9 262.9 198.6 263.7 198.4 264.6C197.7 267.9 196.3 267.3 194.5 265.9C185.5 270.9 179.4 280.5 185 292.5C185.3 293.1 184.9 293.9 184.8 294.6C184.1 294.1 183.2 293.8 182.9 293.2C181 289 180.6 284.5 181.5 280C182.8 273.4 186.8 268.5 192 264.2C191 264.2 190.2 264.1 189.5 264.1C189.4 263.8 189.3 263.6 189.2 263.3C190.7 262.4 192.3 261.5 193.8 260.7C193 254 189.3 252 183.8 255.4C182.6 256.2 181.4 257.1 180.4 258.1C175.6 263.5 172.5 269.5 171.2 277.1ZM205.6 328.3C210.6 330.2 215.7 330.4 220.9 328.9C229.7 326.5 236 318.2 236.7 307.4C236.8 305.2 237.8 304.6 239.4 303.9C243.1 302.3 247 300.8 250.4 298.6C256.1 294.9 256.5 290 252.1 284.9C248.7 281 244.3 279.1 239.5 277.7C238.6 277.4 237.9 276.4 237.1 275.7C237.8 274.9 238.4 273.9 239.2 273.4C241.4 271.9 244 270.8 246 269.1C248.8 266.7 250.3 263.5 249.2 259.6C248.1 255.7 245.5 253.3 241.6 252.4C240.4 252.1 238.7 252.8 237.6 253.6C234.4 255.6 231.5 257.9 228.3 259.9C227.6 260.3 226.4 259.9 225.5 259.9C225.5 258.9 225.2 257.6 225.7 257C227.8 254.5 229.8 252 232.3 250.1C235.1 247.9 236.3 246.1 235.6 242.6C234.6 238.3 232.1 234.8 227.8 234.1C223.9 233.5 219.6 233.7 215.8 234.7C206.1 237.4 198.3 244.5 199.8 255.5C199.9 256.5 198.8 257.6 197.9 259.2C197.9 259.3 198.2 260.1 198.6 261.2C200.3 260.7 201.8 260.2 203.2 259.7C209.8 257.8 216.4 257.4 222.7 260.8C235.3 267.4 240 284.4 233 297C230.1 302.1 225.9 305.8 220.5 307.9C217.8 308.9 214.8 309.2 212 309.8C212.3 316.9 210.2 322.9 205.6 328.3ZM160.5 306.5C160.6 305.2 160.7 304.5 160.7 303.8C160.7 295.4 162.2 287.6 167.7 280.9C168.3 280.2 168.5 279 168.6 278C169.7 268.7 173.3 260.7 180.2 254.3C185.3 249.5 188.6 248.8 195.2 251.7C194.4 248.1 197.3 244.1 193.2 241.2C193 241.1 193.1 240.6 193.1 240.3C193.1 236 191.2 233.8 186.9 233.9C184 234 181 234.7 178.4 235.8C155.5 245.9 147.5 271.9 150.6 290.2C151.6 296.6 154.4 302.3 160.5 306.5ZM358.1 175.4C366.5 178.7 372.8 184.3 376 192.8C379.1 201.2 377.3 209.6 375 218.1C378.3 218.6 380.7 221.4 384.6 219.6C392.8 215.8 397 208.7 395.9 199C394.5 186 388.2 175.5 378.8 166.7C374.9 163 370.3 160.5 364.7 160.9C363.7 161 362.4 161.3 361.7 162.1C359.2 164.7 356.5 167.2 358 171.5C358.4 172.6 358.1 173.9 358.1 175.4ZM98.2 178.3C93.9 175.4 92.1 171.1 91.3 166.3C90.2 159.4 89 152.4 87.9 145.5C78.4 148.9 70.7 162.1 70.8 174.7C70.8 189.3 78.8 201 92.2 205.8C90.1 195.7 91.6 186.5 98.2 178.3ZM218.2 213.4C225.7 208.3 232.8 204 241.9 206.2C237.9 200.5 234 195.1 230.3 189.5C228.5 186.9 229.4 185 232.6 184.9C235.5 184.7 238.6 184.5 241.3 185.3C247.2 187 252.8 189.4 258.6 191.5C259.4 188.7 260.4 185.4 261.4 181.8C260.7 182 260.2 182.1 259.8 182.4C248.4 188.9 233.9 179.4 228.3 171.8C227.9 171.3 227.6 170.7 227.4 170.1C227 168.3 225.9 168 224.1 168.1C213.8 169 205.4 173.7 198.4 181.1C198.3 181.2 198.4 181.5 198.4 181.8C198.9 181.8 199.4 181.8 199.9 181.7C208.3 180.1 215.8 176.6 221.9 170.5C222.5 169.9 223.6 169.9 224.5 169.6C224.5 170.6 224.8 171.9 224.3 172.6C223.3 174.1 222 175.3 220.7 176.5C215.8 181.2 209.7 183.8 203.4 185.8C214.9 184.1 225 197.8 218.2 213.4ZM139.2 310.8C125.8 331.7 115.2 354.4 114.5 380.7C132.3 365 136.9 343.4 141.4 321.8C138.6 329.8 136.5 338.1 132.1 345.6C131.6 345.2 131.3 344.8 131.4 344.5C134.1 333 136.7 321.6 139.2 310.8ZM187.1 216.2C187.7 213.5 187.9 210.9 188.8 208.7C190.6 204 194.2 201.3 199.2 200.8C203.4 200.4 206.3 202.8 208.3 206.3C209.4 208 210.3 209.8 208.6 211.8C206.8 213.9 204.8 213 202.9 212.3C202.4 212.1 201.6 211.4 201.7 211.1C201.8 210.5 202.3 209.8 202.9 209.5C203.5 209.2 204.2 209.2 204.9 209.1C205 208.8 205.2 208.6 205.3 208.3C203.8 207.2 202.4 205.6 200.7 205.2C197.5 204.4 195.1 206.2 193.1 208.6C191.2 210.8 190.7 213.5 191.5 216.2C191.7 216.8 192.7 217.5 193.3 217.5C196.2 217.3 196.9 218.6 195.6 221.4C197.6 221.6 199.2 222 200.8 221.8C212.8 220.5 220.5 205.6 214.8 195C211.9 189.6 207.5 187.8 201.9 190.1C193.1 193.8 187.7 200.9 184.7 209.7C183.8 212.3 184.5 214.6 187.1 216.2ZM87.3 219C80 204.4 49.3 184.9 36.5 186.3C39.1 199.2 64.9 218.8 79.1 218.4C76.5 216 73.9 213.9 71.6 211.6C70.8 210.8 70.7 209.4 70.3 208.2C71.4 208.4 72.7 208.2 73.5 208.8C78 212 82.3 215.3 87.3 219ZM199.7 243.3C205.2 234.5 213.1 230.5 222.6 229.6C232 228.7 238.6 232.7 240.6 240.7C241.2 243 241.1 245.4 241.3 247.8C247.1 248.9 250.8 252.5 253.2 258C256 249.6 254.9 242.2 249.5 236C240.3 225.6 228.4 222.7 215 224.7C208.7 225.7 203.3 228.6 199.5 233.9C198.8 234.9 198.7 236.5 198.8 237.8C198.8 239.5 199.3 241.2 199.7 243.3ZM124.5 271.3C127.4 274.9 130.1 277.7 134.7 277.4C139.2 277.2 142.1 274.6 143.8 270.7C146.8 264 147 257.1 144.2 250.3C141.9 244.7 135.7 240.8 130.7 241.4C125.8 242.1 122.4 246.2 121.4 253C121.3 253.7 121.2 254.4 121.1 255.2C120.8 261.4 123.8 266.6 128.6 268.5C132.2 269.9 137.5 268.7 139.5 265.9C141.1 263.7 140.7 260 138.3 257.2C136.1 258.5 135 260.4 134.7 263C134.6 263.6 133.9 264.4 133.3 264.7C133 264.9 132.1 264.4 131.8 263.9C130.3 261.1 129 258.2 130.3 255C131.8 251.2 135.1 250.1 138.7 252C144.6 255.2 146.1 263.6 141.6 268.7C137.5 273.4 132 274.3 124.5 271.3ZM145.8 336.4C143.7 355.5 146.1 373.5 158.1 389.3C160.6 374.9 159.5 361.1 153.1 347.9C153.1 350.5 153.1 353 153.1 355.6C152.8 355.7 152.5 355.7 152.1 355.8C148.7 349.8 149.1 342.5 145.8 336.4ZM267.2 161.3C265.1 165.4 262 166 258.7 165.2C257.7 165 256.9 163.8 256 163C257 162.4 258.1 161.8 259.2 161.4C260.4 160.9 261.6 160.7 262.8 160.4C262.3 159.2 261.9 157.9 261.2 156.8C260.6 156 259.6 155.4 258.6 155.2C254.6 154.4 250.6 153.6 246.6 153.3C242.7 153 240.9 154.5 239.9 158.3C238.7 162.7 239.7 166.7 243.2 169.7C247.2 173.1 251.8 174.3 257 173.3C262.4 172.3 267.5 166.7 267.2 161.3ZM232.1 153.1C237.2 151.4 242.2 149.2 247.4 148C253.1 146.7 258 149.2 262.5 152.7C262.8 152.9 263.3 153 263.7 153.2C268.8 155.3 272.8 158.3 272 165C275.5 159.7 275.5 152.7 271.9 148C266.3 140.7 258.6 138.1 249.7 139.2C240.9 140.2 235.3 145.5 232.1 153.1ZM72.8 231.9C59.6 234.4 40.9 247.4 34.1 258.8C53 252.7 71.3 246.3 86.5 231.7C79 233.7 72.7 236.5 66.9 240.1C66.1 240.6 64.9 240.6 63.9 240.8C64.3 239.7 64.4 238.2 65.2 237.5C67.5 235.6 70.1 234 72.8 231.9ZM224.2 352.7C225.4 366.1 242.4 375 253.8 368.4C257.5 366.3 259.2 362.8 258.4 358.9C257.6 354.7 253.8 350.6 250 350.7C245.9 350.8 241.7 351.3 237.6 352.3C236.1 352.7 234 354.7 233.8 356.1C233.6 358.4 235.5 360.2 238.1 360.7C238.4 359.7 238.4 358.7 238.9 358C241 355 248.5 354.3 251.4 356.7C253 358 252.9 359.5 251.4 360.6C247.8 363.4 243.7 365.4 239 364.9C231.2 364.2 227.8 356.6 231.8 351.7C232 351.5 232 351.1 232.3 350.3C229.3 351.2 226.8 351.9 224.2 352.7ZM305.6 361.5C301.1 348.8 292.8 340.6 280.9 336C273.7 333.3 266.5 332.9 259.4 336.6C265.8 338.8 272 340.9 278.1 343.2C279.8 343.8 281.4 345 283 345.9C285 347.1 285 348.5 283.2 349.6C290.5 353.5 297.6 357.3 305.6 361.5ZM210.5 400.1C210.4 400.5 210.4 401 210.3 401.4C212.7 402.1 215.1 403.4 217.5 403.5C224.2 403.6 231 403.3 237.8 402.9C243.4 402.6 248.7 401 253.4 398C254.9 397 256.1 395.4 257.4 394C255.6 393.4 253.8 392.4 252 392.3C237.5 391.2 224.1 396.3 210.5 400.1ZM104 254.2C91.4 251.7 72.9 260.9 67 267.8C79.1 271.5 99.3 266.2 106.1 259C101.4 259.6 97.4 260.1 93.4 260.5C91.8 260.7 89.6 262.5 88.9 259.8C88.2 257.3 90.9 257.6 92.3 257.2C96.1 256 100.2 255.1 104 254.2ZM213.2 148.6C212.4 146.4 211.5 144.1 210.9 141.8C210.7 141.2 211.5 140.4 211.8 139.7C212.4 140.1 213.3 140.4 213.7 140.9C214.2 141.7 214.2 142.7 214.7 143.5C216 145.8 217.5 148.1 219.3 151C221.5 135.9 212.1 127.9 203.1 118.9C202.5 121.2 201.4 123.3 201.6 125.3C202.5 134.6 207.1 142.1 213.2 148.6ZM304.5 150.7C313.3 142.1 322.5 118 320.4 109C314.6 117.2 309.8 125.6 305.9 134.7C303.8 139.9 304.5 145.1 304.5 150.7ZM222 391.5C217.6 380.9 217.4 369.8 218.1 358.6C217.4 360.8 216.9 363 216.1 365.2C212.9 374.1 209.6 383 206.6 392C206.1 393.5 207 395.5 207.5 397.2C207.6 397.5 209.1 397.7 209.6 397.4C213.8 395.5 217.9 393.5 222 391.5ZM155.2 221C156.4 229.2 157.6 237.2 158.6 244.5C160.3 243 164 241.2 164.1 239.2C164.5 234.4 167.1 230.7 168.8 226.5C170.1 223.3 172 220.3 174.1 216.5C167.7 220.1 161.6 222.1 155.2 221ZM88.9 312.2C98.2 306.6 109.6 282.1 108.5 270.3C103.9 277.5 99.3 284.5 99.5 293.4C99.5 294.2 98.7 295 98.2 295.8C97.7 295 96.8 294.4 96.6 293.5C96.3 292.4 96.6 291.2 96.6 290.1C96.7 289 96.8 287.9 96.9 286.7C92.2 294.6 89.4 302.9 88.9 312.2ZM260.9 346.1C264.3 359 272.7 368.8 279.5 380C281.2 368.7 270.5 349.3 260.9 346.1ZM193.2 113.6C195.8 112.7 196.6 113.6 196 115.9C195 119.8 194 123.6 193 127.5C193.3 127.6 193.6 127.7 193.9 127.9C195.3 124.3 196.7 120.7 198.1 117.1C198.8 115.3 199.2 113.3 200 111.5C200.8 109.6 202.2 107.9 202.8 105.9C203.8 102.5 204.4 99 205.1 95.5C205.8 91.9 206.4 88.3 207.2 84C201.4 91 194.6 105.6 193.2 113.6ZM201.5 355C200.1 355.4 198.8 356.1 197.5 356.2C195 356.4 194.3 357.8 194 360.1C192.4 372 190.6 383.9 189 395.8C188.9 396.7 189.5 397.6 189.8 398.6C192.1 391.1 193.3 383.8 195.1 376.6C196.9 369.4 199.3 362.4 201.5 355ZM396.1 229.2C403.9 232.2 412.1 232.4 415.4 226.8C410.5 221.6 395 219 389.8 223.4C389.9 223.5 389.9 223.6 390 223.6C391.5 223.9 393.1 224.2 394.6 224.6C398 225.2 398.3 226.3 396.1 229.2ZM190.7 357.3C190.5 357.1 190.3 356.9 190.1 356.6C189.2 357.5 187.8 358.3 187.4 359.4C184.5 368.1 181.7 376.9 179 385.6C177.9 389.3 179.2 391.4 183 392.9C185.7 381 188.2 369.1 190.7 357.3ZM186.3 76.6C179.6 85.2 180.3 104.5 187.3 110.8C188.5 99.4 187.9 88.2 186.3 76.6ZM257.6 105C249.5 109.6 238.1 128 238.7 135.5C244.4 130.2 256.4 110.9 257.6 105ZM111.5 321.6C122.8 316.6 131.2 307.8 139.8 299.5C128.2 304 118.6 311.2 111.5 321.6ZM369 136C360.9 142.2 356.1 151.8 357.7 158.3C362.2 156.8 369.2 143.1 369 136ZM263.9 175.7C244.1 181 234.1 173.5 237 155.6C233.3 157.4 232 159.5 232.6 163.2C233.6 170.1 242.2 179.1 249 180.3C254.7 181.4 259.4 179.4 263.9 175.7ZM184.9 357.3C182.8 357 180.9 356.8 179 356.6C177.5 363.8 176 370.9 174.7 377.9C174.4 379.7 175 381.7 175.2 383.6C175.4 383.5 175.6 383.5 175.8 383.4C178.7 374.8 181.7 366.2 184.9 357.3ZM262.8 188.6C268.9 185.5 281.8 173.1 284.1 168.2C274.3 172.2 266 177.2 262.8 188.6ZM211.1 359C205.5 368.2 202.2 378.2 202.4 389.1C207 379.6 209.7 369.5 211.1 359ZM358.6 219.6C352.3 219.4 349 217.5 348.3 213.8C347.8 211.1 349.2 208.7 352 207.6C348.8 206.5 346.4 207.6 344.7 211C343 214.3 344.1 217.9 347.5 220.3C351.3 223 355.6 222.8 358.6 219.6ZM225 349.6C231.7 346.4 237.6 343.6 243.5 340.8C233.4 338.2 227.6 340.9 225 349.6ZM40.4 232.6C49.8 232.9 58 229.1 66.2 225.3C56.9 225.3 48.4 228 40.4 232.6ZM386.5 292.7C377.6 291.8 369.7 291 361.7 290.1C372 295.7 378.6 296.3 386.5 292.7ZM351.2 318.4C350.8 318.3 350.3 318.2 349.9 318.1C346.9 327.1 345.1 336.4 345.3 345.9C345.6 346 345.9 346 346.3 346.1C347.9 336.9 349.5 327.7 351.2 318.4ZM303.6 286.9C303.3 286.9 303 287 302.7 287C301.1 294.8 301.6 309.8 303.8 316.3C304 314.5 304.4 313.2 304.4 311.9C304.1 303.5 303.8 295.2 303.6 286.9ZM146.2 276.4C143.5 278.3 140.4 280.5 137.6 282.4C140.1 284.3 143 286.5 146.2 288.9C146.2 284.4 146.2 280.2 146.2 276.4ZM243.9 344.9C248.4 345.8 253.1 346.8 258.2 347.8C257.5 346.4 257.1 344.1 255.7 343.1C251.2 339.9 247.2 342 243.9 344.9ZM339.9 123.7C334.4 125 326.8 131 324.2 136.1C330.3 133 335.7 129.7 339.9 123.7ZM72.8 227.2C78.5 226.7 84.5 226.2 90.9 225.7C89.3 225.1 88.3 224.5 87.2 224.3C84.6 223.8 81.7 222.8 79.2 223.3C76.9 223.9 74.8 226 72.8 227.2ZM123.1 282.4C122.9 282.9 122.7 283.5 122.5 284C127.6 286 132.7 288.1 137.8 290.1C138 289.6 138.2 289.1 138.4 288.5C133.3 286.5 128.2 284.4 123.1 282.4ZM340.9 283.9C345.9 285.4 347.8 291.7 353.6 289.6C350.1 287.1 346.7 284.6 342.9 281.9C342.5 282.3 342 282.8 340.9 283.9ZM170.3 231.6C174.2 229.4 178 222.3 178.4 216.8C175.4 222.3 172.9 226.9 170.3 231.6ZM144.7 94.1C145 94.2 145.4 94.3 145.7 94.4C147.2 90.2 148.6 86 150.1 81.7C149.8 81.6 149.6 81.5 149.3 81.4C146.3 85.2 144.9 89.4 144.7 94.1ZM153.2 229.1C152.9 229.1 152.6 229.1 152.3 229.2C152.5 234.2 151.2 239.4 153.2 244.3C153.6 244.3 154 244.2 154.4 244.2C154 239.2 153.6 234.1 153.2 229.1ZM353.8 208.1C351.9 213.1 352.4 214.5 355.6 215.1C356.2 215.2 357.2 215.2 357.6 214.8C357.9 214.4 357.8 213.3 357.5 212.8C356.4 211.4 355.2 210 353.8 208.1ZM81.8 134.7C82.2 134.3 82.6 134 83 133.6C80.4 130.5 77.8 127.4 75.2 124.2C74.8 124.5 74.4 124.8 74 125.2C76.6 128.4 79.2 131.6 81.8 134.7ZM197.5 402C199.1 402.7 200.5 403.4 202.4 404.3C202.4 402.3 202.4 400.9 202.4 399.9C200.8 399.4 199.5 399.1 198 398.6C197.9 399.5 197.7 400.7 197.5 402ZM354.6 174.4C353.9 172.6 353.3 171.3 352.8 169.9C351.5 171.1 350.3 172.2 348.5 173.9C350.9 174.1 352.2 174.2 354.6 174.4ZM172.9 368.6C173.1 368.7 173.4 368.8 173.6 368.9C174.9 364.6 176.2 360.4 177.5 356.1C177.1 356 176.6 355.9 176.2 355.7C175 360 173.9 364.3 172.9 368.6ZM330.6 337.3C331.1 337.1 331.6 336.8 332 336.6C330.4 333.8 328.9 330.9 327.3 328.1C326.9 328.3 326.6 328.5 326.2 328.7C327.7 331.5 329.2 334.4 330.6 337.3ZM64.2 184.8C64.5 184.7 64.8 184.5 65.1 184.4C63.3 181 61.5 177.6 59.8 174.2C59.5 174.3 59.3 174.5 59 174.6C60.7 178 62.5 181.4 64.2 184.8Z" fill="#fff"/>
<path d="M284.3 0C285.2 1.7 286.8 3.4 286.7 5C286.6 6.6 285.1 8.59999 283.6 9.39999C282.6 9.99999 279.9 9.39999 279.3 8.39999C278.4 6.99999 278.3 4.79999 278.5 2.89999C278.6 1.89999 279.8 0.9 280.6 0C281.8 0 283 0 284.3 0Z" fill="#fff"/>
<path d="M484.1 301.7C482.6 303.7 480.7 304.7 478.6 302.7C477 301.3 477.3 299.4 478.8 298C480.6 296.2 482.4 297.7 484.1 298.5C484.1 299.6 484.1 300.6 484.1 301.7Z" fill="#fff"/>
<path d="M0.200012 368.3C1.50001 367.4 3.00001 366.3 4.20001 368.1C4.70001 368.8 4.00001 370.3 3.80001 371.4C2.60001 371.2 1.40001 371 0.200012 370.9C0.200012 370 0.200012 369.1 0.200012 368.3Z" fill="#fff"/>
<path d="M261.3 242.6C262.1 238.4 262.8 234.2 263.6 230C263.7 229.5 264 228.9 264.4 228.7C266.6 227.5 268.8 226.1 271.1 225.2C276.3 223.3 281 224.8 284.4 229.3C289.5 235.9 289.2 246.9 283.6 253.2C280.4 256.8 276.6 258.9 271.7 257.6C265.9 256.1 262.5 252.2 261.7 246.1C261.6 245 261.6 243.8 261.5 242.7C261.5 242.6 261.4 242.6 261.3 242.6ZM275 238.1C274.8 239 274.7 239.9 274.3 240.7C274 241.3 273.4 242.2 273 242.1C272.3 242 271.1 241.3 271.2 240.9C271.4 238.7 271.4 236.2 272.5 234.6C273.9 232.6 276.5 233.1 278.4 234.5C280.2 235.9 281.7 237.5 283.4 239.1C283.9 234.4 281 230 276.8 228.8C272.7 227.7 268.8 229.8 266.8 234.4C264.9 238.7 266.8 248.1 270.2 251.5C270.8 252 271.6 252.4 272.3 252.6C276.2 253.2 280.8 250.4 281.4 247.1C282.3 243.8 279 239.2 275 238.1Z" fill="#fff"/>
<path d="M73.8 338.5C75.4 343.1 74.8 346.2 72 347.7C69.8 348.9 67.1 348.2 65.7 346C64 343.4 64.8 340.3 68.1 337.6C67 334.8 67.5 332.5 70.5 331.2C71.1 330.9 71.5 330.2 71.8 329.6C73.3 327.3 75.4 326.7 77.8 327.7C80.5 328.7 81.1 331 80.8 333.6C80.5 336.1 79.2 337.9 76.4 338.1C75.5 338.1 74.7 338.3 73.8 338.5Z" fill="#fff"/>
<path d="M430.3 311.4C430.3 315.4 427.6 318.4 423.9 318.3C420.1 318.3 417.6 315.7 417.6 312C417.6 308.1 420.6 304.9 424.1 304.9C427.7 305.1 430.3 307.7 430.3 311.4Z" fill="#fff"/>
<path d="M69.4 297.7C72.8 297.9 74.2 299.3 73.5 301.5C72.9 303.4 73.7 304.2 74.6 305.5C76.3 308 76 310.6 74.4 313.1C72.9 315.2 70.8 315.4 68.5 314.8C64.8 313.8 63.4 309.3 65.8 305.8C66.8 304.3 67.6 303.2 67.3 301.2C67.2 300 68.9 298.6 69.4 297.7Z" fill="#fff"/>
<path d="M59.2 350.4C59.3 354 56.6 356.9 53.4 356.9C50.5 356.9 48.1 354.4 48 351.4C47.9 348 50.4 345 53.5 344.9C56.8 344.9 59.2 347.3 59.2 350.4Z" fill="#fff"/>
<path d="M426 266.1C426.8 267.8 428 269.5 428.2 271.3C428.5 274.6 425.7 277.2 422.6 277.1C419.5 277 417.2 274.2 417.5 270.8C417.8 267.4 420.3 265.3 423.6 265.6C424.5 265.8 425.3 266 426 266.1Z" fill="#fff"/>
<path d="M422.7 291.6C422.7 295 420.5 297.4 417.5 297.4C414.4 297.4 412.2 295.1 412.3 292C412.4 288.9 414.6 286.4 417.4 286.4C420.6 286.3 422.7 288.5 422.7 291.6Z" fill="#fff"/>
<path d="M14.6 306.2C11.6 306.3 9.40002 304.2 9.40002 301.1C9.40002 297.9 11.8 295.2 14.6 295.1C17.6 295 19.7 297.2 19.8 300.2C19.8 303.5 17.5 306.1 14.6 306.2Z" fill="#fff"/>
<path d="M397.6 359.1C397.5 362.3 395.1 364.9 392.3 364.9C389.4 364.9 387.3 362.7 387.3 359.6C387.3 356.2 389.8 353.6 392.8 353.7C395.8 353.9 397.7 356 397.6 359.1Z" fill="#fff"/>
<path d="M320.5 42.3C317.7 42.3 315.6 40.3 315.6 37.3C315.6 34.3 317.7 31.8 320.4 31.7C323.1 31.6 325.4 33.8 325.5 36.6C325.6 39.7 323.4 42.2 320.5 42.3Z" fill="#fff"/>
<path d="M426.1 266.1C422.2 263.2 421.4 260 423.9 257.2C425.4 255.5 427.2 254.7 429.5 255.7C431.9 256.7 432.5 258.8 432.3 261.1C432.1 263.4 431.1 265.3 428.5 265.8C427.7 265.9 426.8 266 426.1 266.1C426.1 266.1 426 266.1 426.1 266.1Z" fill="#fff"/>
<path d="M274.8 67.6C274.7 70.6 272.4 73 269.7 72.9C267 72.8 264.9 70.4 265 67.6C265.2 64.7 267.3 62.4 269.9 62.5C272.7 62.5 274.9 64.8 274.8 67.6Z" fill="#fff"/>
<path d="M57.6 314.7C60.5 314.7 62.5 316.8 62.5 319.6C62.5 322.7 60.4 325 57.6 324.9C54.9 324.8 52.9 322.9 52.9 320.1C52.8 317.1 54.8 314.7 57.6 314.7Z" fill="#fff"/>
<path d="M460.3 353.6C460.4 356.7 458.4 359 455.6 359C452.7 359 450.8 357 450.8 354.1C450.8 351.2 452.8 348.9 455.4 348.8C458.2 348.7 460.2 350.7 460.3 353.6Z" fill="#fff"/>
<path d="M25.8 402.7C25.9 399.7 27.9 397.5 30.5 397.5C33.2 397.5 35.3 399.8 35.2 402.6C35.1 405.5 32.9 407.9 30.5 407.9C27.8 407.7 25.7 405.5 25.8 402.7Z" fill="#fff"/>
<path d="M42.6 366.5C42.5 369.6 40.4 372.1 37.9 372C35.2 371.9 33.1 369.6 33.3 366.8C33.4 363.9 35.5 361.7 38.1 361.7C40.8 361.6 42.7 363.6 42.6 366.5Z" fill="#fff"/>
<path d="M57.2 294.5C57.1 297.2 55 299.6 52.7 299.6C50.1 299.6 48 297.3 48.1 294.7C48.2 291.7 50.3 289.5 53 289.7C55.4 289.9 57.3 292 57.2 294.5Z" fill="#fff"/>
<path d="M464.4 425.4C467.1 425.5 468.9 427.3 468.8 430C468.7 432.8 466.6 434.9 464.1 434.9C461.4 434.8 459.6 432.9 459.7 430.3C459.8 427.5 461.9 425.3 464.4 425.4Z" fill="#fff"/>
<path d="M403.5 274.9C403.5 277.7 401.3 280 398.6 279.9C396.2 279.8 394.5 277.9 394.5 275.3C394.5 272.7 396.5 270.5 398.8 270.5C401.4 270.4 403.5 272.4 403.5 274.9Z" fill="#fff"/>
<path d="M314.5 92.4C317 92.5 318.9 94.6 318.8 97.2C318.7 100 316.9 101.9 314.3 101.8C311.8 101.7 309.9 99.7 310 97C310.2 94.4 312.1 92.3 314.5 92.4Z" fill="#fff"/>
<path d="M480.6 207.3C480.6 209.9 478.6 212.1 476.2 212.1C473.7 212.1 472 210.3 472 207.7C472.1 205 473.9 202.9 476.4 202.9C478.9 202.8 480.7 204.7 480.6 207.3Z" fill="#fff"/>
<path d="M257.1 44.8C257.1 47.3 255.2 49.5 253 49.5C250.5 49.4 248.6 47.5 248.6 45.1C248.6 42.6 250.8 40.3 253.1 40.4C255.3 40.5 257.1 42.5 257.1 44.8Z" fill="#fff"/>
<path d="M466.7 292.3C469.1 292.4 470.8 294.2 470.8 296.6C470.7 299.2 468.9 301.2 466.6 301.2C464.2 301.2 462.3 299.2 462.4 296.8C462.4 294.2 464.3 292.2 466.7 292.3Z" fill="#fff"/>
<path d="M420.7 347.3C420.7 349.8 418.8 352 416.6 351.9C414.1 351.8 412.7 350.5 412.6 348C412.5 345.6 414.6 343.4 416.7 343.4C418.9 343.4 420.7 345.2 420.7 347.3Z" fill="#fff"/>
<path d="M292.7 81.2C295 81.5 296.6 83.5 296.2 85.8C295.7 88.1 294.5 89.6 291.9 89.3C289.4 89 288.2 87.5 288.4 85.1C288.5 82.8 290.6 81 292.7 81.2Z" fill="#fff"/>
<path d="M98.3 349.7C98.1 351.6 97.1 353.3 94.5 353.2C92.1 353.1 90.7 351.8 90.7 349.3C90.7 346.8 92.5 345 94.7 345.1C96.8 345.2 98.4 346.9 98.3 349.7Z" fill="#fff"/>
<path d="M85.8 294.1C85.6 296.5 84.4 298.1 81.9 298.3C79.7 298.5 78 296.6 78 294.3C78.1 291.9 79.9 290 82.2 290.2C84.6 290.4 85.8 291.8 85.8 294.1Z" fill="#fff"/>
<path d="M71.7 376C71.7 378.6 69.8 380.8 67.7 380.7C65.4 380.5 64 379.3 63.9 376.9C63.8 374.5 65.7 372.5 67.9 372.6C70.3 372.7 71.5 374 71.7 376Z" fill="#fff"/>
<path d="M85.3 380.5C83.8 378.1 82.5 376.7 82.2 375.2C81.8 373.3 84.6 370.8 86.3 371.6C87.8 372.3 89.6 374.3 89.6 375.7C89.5 377 87.3 378.3 85.3 380.5Z" fill="#fff"/>
<path d="M32.8 333.2C32.2 332.3 30.8 331 30.5 329.5C30.1 327.4 31.7 325.9 33.9 326C36.1 326 37.4 327.4 37.3 329.6C37.4 331.8 36.2 333.1 32.8 333.2Z" fill="#fff"/>
<path d="M3.30002 395.3C4.00002 392.4 4.80002 390.8 7.20002 390.9C9.40002 390.9 10.8 392.2 10.8 394.4C10.8 396.5 9.70002 398.3 7.40002 398C6.00002 397.8 4.70002 396.3 3.30002 395.3Z" fill="#fff"/>
<path d="M335.1 242.1C334.6 242.9 334 243.7 333.8 244.1C333.1 243.7 332.2 243 331.3 242.7C328.9 242 326.4 241.6 323.9 241.1C324 240.8 324 240.6 324.1 240.3C326.2 240.5 328.3 240.6 330.7 240.8C331 239.2 331.2 237.7 331.6 236.4C331.8 235.8 332.6 235.4 333.1 234.8C333.4 235.5 333.9 236.1 334 236.8C334.2 238.4 334.3 240.1 334.4 241.8C334.5 241.9 334.8 242 335.1 242.1Z" fill="#fff"/>
<path d="M316.1 79.6C315.8 82.7 314.9 84.3 312.5 84.2C310.4 84.2 309.4 82.9 309.5 80.9C309.6 78.9 310.6 77.2 312.7 77.5C314.1 77.7 315.2 79.1 316.1 79.6Z" fill="#fff"/>
<path d="M307.5 73.2C306.8 72 305.3 70.7 305.5 69.7C305.7 68.5 307.4 67.5 308.4 66.4C309.3 67.4 311 68.4 311 69.5C311 70.7 309.6 72 308.9 73.3C308.4 73.2 307.9 73.2 307.5 73.2Z" fill="#fff"/>
<path d="M443.8 293.9C442.3 295.1 441.1 296.6 440.4 296.4C439.3 296.1 437.9 294.7 437.9 293.8C437.9 292.9 439.5 291.5 440.5 291.3C441.3 291 442.3 292.6 443.8 293.9Z" fill="#fff"/>
<path d="M431.9 406.3C430.1 407.6 429.1 409 428.2 408.9C427.2 408.7 426 407.4 425.8 406.3C425.7 405.7 427.2 404.1 428 404C429.1 403.9 430.1 405.1 431.9 406.3Z" fill="#fff"/>
<path d="M99.8 384.1C98.3 385.2 97.5 386.1 96.5 386.3C96 386.4 94.6 384.9 94.8 384.4C95 383.5 96 382.5 96.8 382.3C97.3 382.1 98.3 383.1 99.8 384.1Z" fill="#fff"/>
<path d="M381.4 395.7C380.6 394.1 379.7 393.2 379.9 392.5C380.1 391.7 381.1 391.1 381.8 390.5C382.4 391.2 383.6 391.9 383.6 392.5C383.4 393.4 382.5 394.2 381.4 395.7Z" fill="#fff"/>
<path d="M365.1 89.6C364 90.5 363.3 91.6 362.6 91.6C361.9 91.6 360.6 90.3 360.7 89.9C360.9 89 361.8 88 362.6 87.6C363 87.5 364 88.7 365.1 89.6Z" fill="#fff"/>
<path d="M304.1 75.5C304.9 76.9 305.8 77.9 305.6 78.5C305.4 79.3 304.2 79.9 303.5 80.5C303 79.7 302 78.9 302.1 78.2C302.1 77.5 303.1 76.7 304.1 75.5Z" fill="#fff"/>
<path d="M390.1 104.2C388.9 105 388.1 106 387.7 105.8C387 105.5 386.1 104.6 386 103.9C385.9 103.4 387.1 102.2 387.6 102.3C388.3 102.4 389 103.2 390.1 104.2Z" fill="#fff"/>
<path d="M170.4 135.9C177.6 132.8 182.5 135.5 183.6 143.1C184.6 149.7 181 156.9 175.1 160C174.1 160.5 172.8 160.6 171.5 160.9C168.3 165.4 164.7 170.3 160.9 175.5C164.6 183.7 162.1 191.2 155.6 197.6C150.6 202.5 147.2 202.5 142.4 198C140.5 200.6 138.9 203.6 136.6 205.9C129.5 213.1 119.4 210.3 117 200.5C115.1 192.6 116.8 184.9 118.7 177.3C118.8 176.9 118.9 176.5 119 176.3C117.3 174.9 115.8 173.5 114.3 172.3C108.3 172.8 103.2 170.8 99.2 166.6C95.5 162.7 95.2 157.8 97.3 153.1C102.5 141.6 110.8 133.6 123.7 131.3C124.4 131.2 125.1 131 126 130.8C125.4 125.7 128.2 122.2 131.7 119.2C137 114.6 143.1 111.8 150 111.1C156.6 110.4 160.8 114.6 159.7 120.8C159.6 121.6 158.6 122.3 158 123.1C157.5 122.4 156.8 121.8 156.6 121.1C154.9 115.4 151.6 113.1 146 115.2C141.2 117 136.8 119.9 132.3 122.5C131.1 123.2 130.1 124.6 129.7 125.9C129.3 127.2 129.2 129.4 129.9 130.1C130.9 131.1 132.6 131.7 134.6 130.7C138 129 141.7 127.4 145.4 126.6C155.6 124.3 164.2 126.9 170.4 135.9ZM144.8 160.8C140.3 163.1 136.4 165.8 134.3 170C133 172.5 132.4 175.5 132.3 178.3C132.3 182.3 134.8 184 138.7 182.8C141.1 182.1 143.6 181.1 145.4 179.6C151.5 174.5 157.4 169.2 163.2 163.8C166.5 160.7 168.1 156.6 169 152.2C171.2 141.7 165.9 133.1 155.5 130.6C149.7 129.2 144 129.7 138.7 132.4C127.1 138.5 120.8 149.1 116.3 160.8C113.7 167.6 115.4 170.2 122.4 172.5C123.1 172.7 123.5 173.7 124 174.3C123.3 174.8 122.7 175.3 121.9 175.6C121.5 175.8 121 175.5 120.5 175.5C120 178.1 119.6 180.6 119.2 183.1C118.4 188.5 117.6 193.9 119.5 199.2C121.6 205 126.9 206.6 131.8 202.8C137 198.7 139.4 193.3 138.7 186.6C131.3 186.1 129.6 184.3 128.9 177C128.8 176.1 127.9 175.1 127.1 174.5C122.3 171.1 120.6 166.6 122.3 161.1C125 152.1 134.6 144.2 144 143.4C149.8 142.9 154.6 145.1 156.8 149.9C158 152.6 159.4 154.9 161.7 156.8C164.1 158.8 164.1 161 162.2 162.7C159.9 164.8 157.5 166.7 155 168.6C152.7 170.3 151.8 169.9 151.2 166.9C143.2 167.3 143.2 167.3 144.8 160.8ZM112.6 168.4C112.8 154.4 119.5 143.6 129 134.1C128.4 133.9 128 133.6 127.7 133.6C116.4 135 107.2 140 101.6 150.2C96.5 159.6 101.7 168 112.6 168.4ZM154.6 153.4C152.2 149.6 149.3 146.6 144.6 146.7C136.3 146.8 126.8 154.6 124.8 162.6C123.8 166.9 125.5 170.5 129 171.9C135 162.1 142.8 155.2 154.6 153.4ZM158.1 176.9C155.3 178.9 153 180.8 150.4 182.3C147.8 183.9 145.1 185.1 142.3 186.5C142.7 188.2 142.9 190 143.4 191.7C145.2 197.1 149.2 198 153 193.8C157.3 189.1 157.8 183.3 158.1 176.9ZM172.4 156.5C173.8 155.6 175.5 154.8 177 153.6C181 150.5 181.8 143.4 178.8 139.4C176.8 136.8 174.6 136.6 172.5 138.2C172.4 144.5 172.4 150.4 172.4 156.5ZM154.7 162.5C151 159.6 148.5 160.5 147.3 164.8C149.8 164 151.9 163.4 154.7 162.5Z" fill="#fff"/>
<path d="M206.2 299.1C206 301 206.1 303.5 205.5 303.7C203.9 304.3 201.8 304.2 200.1 303.7C196.5 302.6 193.6 298.1 194 294C194.5 289.6 195.2 285.1 198.5 281.6C201.5 278.3 215.1 273.3 219.5 274.2C223.8 275 225.9 278.1 227.2 282C228.6 286.2 227.8 289.9 224.8 293C220.6 297.2 215.2 298.7 209.5 299.2C208.3 299.2 207.2 299.1 206.2 299.1ZM201.9 299.6C200.7 294.9 201 294.8 205.6 294.7C208.7 294.7 211.8 294.2 214.8 293.4C216.1 293 217.6 291.4 218 290.1C218.9 287 217.1 284.7 214.6 283C211.4 280.8 208.9 280.6 206.8 282.7C204.3 285.1 201.8 287.7 199.6 290.5C196.8 293.8 197.7 297.1 201.9 299.6ZM215.6 278.3C219.4 281.2 222 284.7 222 290C224.5 288.3 224.7 286.2 223.9 284C222.6 280.4 220.1 278.1 215.6 278.3Z" fill="#fff"/>
<path d="M229.9 143.6C229.1 144.3 228.4 145 227.6 145.8C227.2 144.7 226.4 143.6 226.6 142.5C227.5 134.8 228.5 127.2 229.5 119.5C229.6 118.8 230.5 118.3 231.1 117.7C231.4 118.5 232 119.3 231.9 120.1C231.2 127.3 230.4 134.5 229.7 141.6C229.6 142.2 229.8 142.9 229.9 143.6Z" fill="#fff"/>
</svg>
